<?xml version="1.0" standalone="no"?>
<!DOCTYPE svg PUBLIC "-//W3C//DTD SVG 20010904//EN"
 "http://www.w3.org/TR/2001/REC-SVG-20010904/DTD/svg10.dtd">
<svg version="1.0" xmlns="http://www.w3.org/2000/svg"
 width="4724.000000pt" height="4724.000000pt" viewBox="0 0 4724.000000 4724.000000"
 preserveAspectRatio="xMidYMid meet">

<g transform="translate(0.000000,4724.000000) scale(0.100000,-0.100000)" stroke="none">
<path d="M15881 47226 c-13 -7 -30 -24 -37 -37 -11 -20 -13 -1190 -14 -6774
l0 -6750 -5083 5083 c-5072 5072 -5082 5082 -5122 5082 -40 0 -47 -7 -1127
-1088 -1081 -1080 -1088 -1087 -1088 -1127 0 -40 10 -50 5082 -5122 l5083
-5083 -6748 0 c-5821 0 -6752 -2 -6776 -14 -15 -8 -32 -26 -39 -41 -9 -20 -12
-388 -12 -1541 0 -1647 -3 -1556 55 -1582 20 -9 2166 -12 9456 -12 8142 0
9434 2 9458 14 15 8 32 26 39 41 17 38 17 18872 0 18910 -26 58 66 55 -1585
55 -1241 -1 -1522 -3 -1542 -14z"/>
<path d="M28271 47226 c-13 -7 -30 -24 -37 -37 -19 -34 -21 -18874 -2 -18914
7 -15 24 -33 39 -41 24 -12 1316 -14 9458 -14 7290 0 9436 3 9456 12 58 26 55
-65 55 1583 0 1648 3 1557 -55 1583 -20 9 -1588 12 -6883 12 l-6857 0 5078
5078 c4935 4935 5079 5080 5084 5121 l6 43 -1089 1089 c-1082 1082 -1089 1089
-1129 1089 -40 0 -50 -10 -5012 -4972 l-4973 -4973 0 6637 c0 5124 -3 6643
-12 6663 -26 58 66 55 -1585 55 -1241 -1 -1522 -3 -1542 -14z"/>
<path d="M51 19006 c-53 -29 -50 52 -51 -1579 0 -1651 -3 -1559 55 -1585 20
-9 1565 -12 6783 -12 l6757 0 -5093 -5093 c-5082 -5082 -5092 -5092 -5092
-5132 0 -40 7 -47 1089 -1129 l1089 -1089 43 6 c41 5 186 149 5121 5084 l5078
5078 0 -6738 c0 -5812 2 -6742 14 -6766 8 -15 26 -32 41 -39 20 -9 388 -12
1541 -12 1647 0 1556 -3 1582 55 9 20 12 2166 12 9456 0 8142 -2 9434 -14
9458 -8 15 -26 32 -41 39 -40 19 -18880 17 -18914 -2z"/>
<path d="M28271 19006 c-13 -7 -30 -24 -37 -37 -19 -34 -21 -18874 -2 -18914
26 -58 -65 -55 1583 -55 1648 0 1557 -3 1583 55 9 20 12 1536 12 6653 l0 6627
4973 -4973 c4962 -4962 4972 -4972 5012 -4972 40 0 47 7 1129 1089 l1089 1089
-6 43 c-5 41 -150 187 -5094 5131 l-5088 5088 6867 0 c5303 0 6873 3 6893 12
58 26 55 -65 55 1583 0 1648 3 1557 -55 1583 -40 19 -18880 17 -18914 -2z"/>
</g>
</svg>
