<?xml version="1.0" standalone="no"?>
<!DOCTYPE svg PUBLIC "-//W3C//DTD SVG 20010904//EN"
 "http://www.w3.org/TR/2001/REC-SVG-20010904/DTD/svg10.dtd">
<svg version="1.0" xmlns="http://www.w3.org/2000/svg"
 width="4724.000000pt" height="4724.000000pt" viewBox="0 0 4724.000000 4724.000000"
 preserveAspectRatio="xMidYMid meet">

<g transform="translate(0.000000,4724.000000) scale(0.100000,-0.100000)" stroke="none">
<path d="M51 47226 c-13 -7 -30 -24 -37 -37 -19 -34 -21 -18874 -2 -18914 26
-58 -65 -55 1583 -55 1648 0 1557 -3 1583 55 9 20 12 1563 12 6773 l0 6747
5083 -5083 c4939 -4939 5085 -5084 5126 -5089 l43 -6 1090 1091 1091 1090 -6
43 c-5 41 -150 187 -5089 5126 l-5083 5083 6747 0 c5210 0 6753 3 6773 12 58
26 55 -65 55 1583 0 1648 3 1557 -55 1583 -40 19 -18880 17 -18914 -2z"/>
<path d="M28271 47226 c-53 -29 -50 52 -51 -1579 0 -1651 -3 -1559 55 -1585
20 -9 1589 -12 6888 -12 l6862 0 -5088 -5088 c-5077 -5077 -5087 -5087 -5087
-5127 0 -40 7 -47 1089 -1129 l1089 -1089 43 6 c41 5 183 146 5011 4974 l4968
4968 0 -6633 c0 -5721 2 -6637 14 -6661 8 -15 26 -32 41 -39 20 -9 388 -12
1541 -12 1647 0 1556 -3 1582 55 9 20 12 2166 12 9456 0 8142 -2 9434 -14
9458 -8 15 -26 32 -41 39 -40 19 -18880 17 -18914 -2z"/>
<path d="M51 19006 c-13 -7 -30 -24 -37 -37 -19 -34 -21 -18874 -2 -18914 7
-15 24 -33 39 -41 24 -12 1316 -14 9458 -14 7290 0 9436 3 9456 12 58 26 55
-65 55 1583 0 1648 3 1557 -55 1583 -20 9 -1564 12 -6778 12 l-6752 0 5088
5088 c4944 4944 5089 5090 5094 5131 l6 43 -1091 1090 -1090 1091 -43 -6 c-41
-5 -187 -150 -5126 -5089 l-5083 -5083 0 6742 c0 5206 -3 6748 -12 6768 -26
58 66 55 -1585 55 -1241 -1 -1522 -3 -1542 -14z"/>
<path d="M44101 19006 c-13 -7 -30 -24 -37 -37 -11 -20 -13 -1170 -14 -6654
l0 -6630 -4973 4973 c-4962 4962 -4972 4972 -5012 4972 -40 0 -47 -7 -1127
-1088 -1081 -1080 -1088 -1087 -1088 -1127 0 -40 10 -50 5092 -5132 l5093
-5093 -6868 0 c-5925 0 -6872 -2 -6896 -14 -15 -8 -32 -26 -39 -41 -9 -20 -12
-388 -12 -1541 0 -1647 -3 -1556 55 -1582 20 -9 2166 -12 9456 -12 8142 0
9434 2 9458 14 15 8 32 26 39 41 9 20 12 2166 12 9455 0 7289 -3 9435 -12
9455 -26 58 66 55 -1585 55 -1241 -1 -1522 -3 -1542 -14z"/>
</g>
</svg>
